<svg width="354" height="201" viewBox="0 0 354 201" fill="none" xmlns="http://www.w3.org/2000/svg">
<path fill-rule="evenodd" clip-rule="evenodd" d="M268.205 187.245C306.347 174.409 335.226 138.177 331.089 85.7984C324.803 6.21634 248.11 -13.525 200.334 9.91782C135.522 41.7193 127.314 46.9328 80.8929 46.9328C46.3179 46.9328 11.1144 63.5895 6.71398 108.624C3.52439 141.267 16.3547 169.76 63.8337 184.308C150.244 210.785 231.347 199.649 268.205 187.245Z" fill="#3C3C3C"/>
<path fill-rule="evenodd" clip-rule="evenodd" d="M153.738 80.5662C153.742 80.5662 153.746 80.5662 153.749 80.5662C161.064 80.5662 166.993 74.4152 166.993 66.8277C166.993 59.2402 161.064 53.0894 153.749 53.0894C147.813 53.0894 142.789 57.1399 141.106 62.7217C140.224 62.4147 139.279 62.2483 138.297 62.2483C133.421 62.2483 129.467 66.3489 129.467 71.4072C129.467 76.4655 133.421 80.5662 138.297 80.5662C138.302 80.5662 138.307 80.5662 138.312 80.5662H153.738Z" fill="#DDDDDD"/>
<path fill-rule="evenodd" clip-rule="evenodd" d="M123.47 150.418C127.564 150.418 130.882 147.137 130.882 143.091C130.882 139.044 127.564 135.764 123.47 135.764C122.119 135.764 120.853 136.12 119.763 136.744V136.679C119.763 129.092 113.541 122.941 105.865 122.941C99.6836 122.941 94.445 126.929 92.6387 132.444C91.8358 132.22 90.9885 132.1 90.1127 132.1C84.9954 132.1 80.8469 136.201 80.8469 141.259C80.8469 146.318 84.9954 150.418 90.1127 150.418C90.1171 150.418 90.1215 150.418 90.1258 150.418H123.47Z" fill="#DDDDDD"/>
<path d="M62.837 54.5894L21.4964 50.2433C16.6835 49.7373 12.3744 53.2299 11.8715 58.0442L1.54457 156.917C1.04173 161.731 4.53566 166.044 9.34847 166.55L50.6891 170.896C55.5019 171.402 59.8111 167.91 60.314 163.095L70.6409 64.2226C71.1437 59.4083 67.6498 55.0954 62.837 54.5894Z" fill="black" stroke="black"/>
<path d="M63.0649 50.29L21.93 45.9655C17.1171 45.4595 12.8079 48.9521 12.3051 53.7664L2.02022 152.237C1.51738 157.051 5.0113 161.364 9.82412 161.87L50.9591 166.194C55.7719 166.7 60.0811 163.208 60.584 158.393L70.8688 59.9232C71.3717 55.1089 67.8778 50.7959 63.0649 50.29Z" fill="#F2F2F2" stroke="black"/>
<path d="M66.782 60.4581L56.7705 156.311C56.4017 159.842 53.2417 162.403 49.7122 162.032L11.1935 157.982C7.66407 157.611 5.10185 154.449 5.4706 150.918L15.4821 55.065C15.851 51.5344 19.011 48.9732 22.5404 49.3443L28.6843 49.9902L54.9152 52.7479L61.0591 53.3938C64.5886 53.7648 67.1507 56.9276 66.782 60.4581Z" fill="white" stroke="black"/>
<path d="M30.6109 120.293C31.6185 120.389 32.6338 120.506 33.6502 120.612C33.9282 118.067 34.1973 115.509 34.4555 112.962L31.4063 112.642C31.1284 115.187 30.8493 117.743 30.6109 120.293ZM27.4209 109.065L30.0715 106.922L32.2191 109.569L33.5445 108.497L31.3969 105.85L34.0487 103.707L32.9755 102.383L30.3237 104.526L28.1773 101.88L26.8507 102.951L28.9984 105.598L26.3465 107.742L27.4209 109.065ZM26.4676 115.242C26.3176 116.762 26.1578 118.281 25.988 119.799C27.0122 119.926 28.0307 120.012 29.0559 120.13C29.2271 118.6 29.3774 117.076 29.5387 115.544C28.5124 115.437 27.4903 115.289 26.4676 115.242ZM46.1508 104.915C45.5603 110.526 44.9607 116.125 44.3799 121.738C45.4073 121.835 46.4215 121.963 47.45 122.05C48.0296 116.449 48.6181 110.858 49.2178 105.257C48.2077 105.091 47.1762 105.033 46.1508 104.915ZM41.1689 108.033C40.7149 112.441 40.2311 116.846 39.7871 121.255C40.8035 121.361 41.8209 121.458 42.8263 121.574C43.3478 117.002 43.7909 112.411 44.2924 107.837C43.2934 107.662 42.2697 107.625 41.2674 107.479C41.2196 107.661 41.1867 107.846 41.1689 108.033ZM36.3418 110.062C36.292 110.248 36.2711 110.446 36.2512 110.635C35.9052 114.018 35.5303 117.389 35.1941 120.773L38.2432 121.093C38.3888 119.901 38.4936 118.715 38.6291 117.523C38.8595 115.143 39.1606 112.761 39.3612 110.378C38.3536 110.283 37.3471 110.178 36.3418 110.062Z" fill="#F97F0C"/>
<path d="M20.9036 56.6641C20.7947 57.7104 21.5644 58.6573 22.6183 58.7716C23.6777 58.8865 24.6346 58.1182 24.7441 57.0666C24.853 56.0203 24.0833 55.0734 23.0293 54.9591C21.9699 54.8443 21.013 55.6124 20.9036 56.6641Z" fill="white" stroke="black"/>
<path d="M270.824 159.723L231.261 162.483C230.918 162.506 230.631 162.46 230.449 162.389C230.402 162.372 230.368 162.354 230.345 162.34L229.523 150.605C229.544 150.589 229.574 150.567 229.619 150.542C229.788 150.447 230.066 150.362 230.41 150.338L269.972 147.577C270.316 147.554 270.603 147.601 270.784 147.671C270.832 147.69 270.865 147.706 270.887 147.72L271.711 159.455C271.69 159.471 271.659 159.494 271.615 159.518C271.446 159.613 271.168 159.699 270.824 159.723Z" fill="white" stroke="black"/>
<path d="M331.491 146.869L169.247 158.186C165.894 158.419 162.972 155.892 162.738 152.549L155.455 48.6546C155.22 45.3126 157.759 42.4036 161.114 42.1696L323.358 30.8519C326.716 30.6179 329.634 33.1461 329.868 36.4881L337.15 140.383C337.385 143.725 334.848 146.634 331.491 146.869Z" fill="#F2F2F2"/>
<path d="M169.247 158.186C165.894 158.419 162.972 155.892 162.738 152.55L155.455 48.6546C155.22 45.3126 157.759 42.4036 161.114 42.1697L323.358 30.852C326.716 30.6178 329.634 33.1462 329.868 36.4881L337.15 140.383C337.385 143.725 334.848 146.634 331.491 146.869" stroke="black"/>
<path d="M325.452 141.874L173.705 152.46C170.873 152.657 168.441 150.587 168.252 147.887L161.628 53.3993C161.439 50.6993 163.557 48.3116 166.391 48.114L318.137 37.5287C320.973 37.331 323.402 39.4013 323.591 42.1013L330.214 136.589C330.403 139.289 328.288 141.677 325.452 141.874Z" fill="white" stroke="black"/>
<path d="M268.944 151.884L348.966 146.301L349.457 153.308C349.521 154.221 349.342 155.035 349.032 155.613C348.717 156.197 348.319 156.461 347.954 156.487L155.146 169.936C154.781 169.962 154.35 169.755 153.957 169.22C153.569 168.692 153.279 167.91 153.214 166.997L152.724 159.99L232.746 154.409C233.051 155.332 233.508 156.142 234.081 156.744C234.749 157.445 235.609 157.896 236.563 157.83L265.641 155.801C266.596 155.734 267.383 155.17 267.948 154.382C268.43 153.708 268.771 152.842 268.944 151.884Z" fill="black" stroke="black"/>
<path d="M269.142 150.809L350.816 145.111L351.118 149.407C351.186 150.377 350.453 151.221 349.479 151.289L152.884 165.002C151.91 165.07 151.067 164.337 150.999 163.367L150.698 159.071L232.374 153.373C233.062 154.713 234.492 155.596 236.098 155.484L265.748 153.415C267.353 153.303 268.646 152.232 269.142 150.809Z" fill="#F2F2F2" stroke="black"/>
<path d="M247.424 116.289C257.721 115.571 265.483 106.639 264.761 96.3399C264.039 86.0406 255.106 78.2737 244.809 78.9919C234.512 79.7102 226.75 88.6417 227.472 98.941C228.194 109.24 237.127 117.007 247.424 116.289Z" fill="#F97F0C" stroke="#F97F0C"/>
<path d="M243.225 101.796L239.245 98.5825C239.245 98.5822 239.243 98.5818 239.243 98.5814C238.287 97.8011 236.869 97.9303 236.071 98.8723C235.269 99.821 235.4 101.232 236.362 102.019L236.365 102.02L242.296 106.824C242.296 106.824 242.296 106.824 242.296 106.825C243.335 107.672 244.892 107.438 245.629 106.319L255.024 92.0508C255.707 91.0123 255.404 89.6281 254.354 88.9622C253.311 88.3003 251.917 88.5928 251.238 89.6247L243.225 101.796Z" fill="white" stroke="#F97F0C"/>
</svg>
