<svg width="12" height="18" viewBox="0 0 12 18" fill="none" xmlns="http://www.w3.org/2000/svg">
  <path
    d="M10.6682 17.2032H0.927665C0.681633 17.2032 0.445678 17.1044 0.271707 16.9284C0.0977364 16.7524 0 16.5137 0 16.2649V0.938357C0 0.689489 0.0977364 0.450814 0.271707 0.274838C0.445678 0.0988616 0.681633 0 0.927665 0H8.30145L11.5958 3.31123V16.2649C11.5958 16.5137 11.4981 16.7524 11.3241 16.9284C11.1501 17.1044 10.9142 17.2032 10.6682 17.2032Z"
    fill="#5097FF" />
  <path d="M8.72742 3.16064L11.5958 6.03984V3.30922H9.22913C9.05134 3.30887 8.87732 3.25733 8.72742 3.16064Z"
    fill="url(#paint0_linear_75_353)" />
  <path
    d="M9.22918 3.30927H11.5959L8.30151 0V2.37287C8.30203 2.6214 8.39999 2.85957 8.5739 3.03513C8.74782 3.21068 8.98348 3.30927 9.22918 3.30927Z"
    fill="#AECFFF" />
  <path
    d="M2.68795 8.04989C2.99023 8.04989 3.23527 7.80202 3.23527 7.49626C3.23527 7.1905 2.99023 6.94263 2.68795 6.94263C2.38567 6.94263 2.14062 7.1905 2.14062 7.49626C2.14062 7.80202 2.38567 8.04989 2.68795 8.04989Z"
    fill="white" />
  <path
    d="M9.64702 10.6513L7.66838 8.6499C7.63888 8.62007 7.60371 8.59659 7.56499 8.58087C7.52628 8.56515 7.48481 8.55751 7.4431 8.55843C7.4014 8.55934 7.3603 8.56878 7.32229 8.58618C7.28428 8.60358 7.25015 8.62858 7.22195 8.65968L6.64911 9.28994L7.34061 9.9898C7.35657 10.0059 7.36924 10.0251 7.37789 10.0461C7.38654 10.0672 7.391 10.0898 7.39102 10.1126C7.39104 10.1354 7.38661 10.158 7.378 10.1791C7.36938 10.2002 7.35674 10.2194 7.3408 10.2355C7.32487 10.2517 7.30594 10.2645 7.2851 10.2732C7.26427 10.282 7.24194 10.2865 7.21938 10.2865C7.19682 10.2865 7.17448 10.2821 7.15363 10.2733C7.13278 10.2646 7.11384 10.2518 7.09787 10.2357L4.9109 8.02355C4.8812 7.99349 4.84576 7.96988 4.80674 7.95414C4.76772 7.9384 4.72594 7.93086 4.68395 7.932C4.64195 7.93313 4.60063 7.94291 4.56249 7.96073C4.52436 7.97856 4.49021 8.00406 4.46214 8.03567L2.13254 10.6603C2.10272 10.6941 2.08318 10.7358 2.07627 10.7805C2.06936 10.8252 2.07538 10.871 2.0936 10.9123C2.11182 10.9536 2.14146 10.9887 2.17896 11.0134C2.21646 11.038 2.2602 11.0512 2.30493 11.0513H9.48313C9.52889 11.0512 9.57359 11.0374 9.61161 11.0116C9.64963 10.9859 9.67927 10.9493 9.69679 10.9065C9.71431 10.8638 9.71893 10.8167 9.71007 10.7713C9.70122 10.7259 9.67928 10.6842 9.64702 10.6513Z"
    fill="white" />
  <g opacity="0.5">
    <path
      d="M9.65549 10.6616C9.68531 10.6953 9.70485 10.7371 9.71176 10.7818C9.71867 10.8265 9.71266 10.8722 9.69444 10.9136C9.67622 10.9549 9.64657 10.99 9.60908 11.0147C9.57158 11.0393 9.52783 11.0525 9.4831 11.0526H2.30645C2.26431 11.0529 2.22294 11.0412 2.18701 11.019L8.28641 17.2071H10.6682C10.9142 17.2071 11.1502 17.1082 11.3241 16.9322C11.4981 16.7562 11.5959 16.5176 11.5959 16.2687V12.6244L9.65549 10.6616Z"
      fill="url(#paint1_linear_75_353)" />
  </g>
  <defs>
    <linearGradient id="paint0_linear_75_353" x1="8.72742" y1="4.60024" x2="11.5958" y2="4.60024"
      gradientUnits="userSpaceOnUse">
      <stop stop-color="#347ED6" />
      <stop offset="1" stop-color="#5097FF" />
    </linearGradient>
    <linearGradient id="paint1_linear_75_353" x1="2.18547" y1="13.9345" x2="11.5959" y2="13.9345"
      gradientUnits="userSpaceOnUse">
      <stop stop-color="#347ED6" />
      <stop offset="1" stop-color="#5097FF" />
    </linearGradient>
  </defs>
</svg>