<svg width="15" height="18" viewBox="0 0 15 18" fill="none" xmlns="http://www.w3.org/2000/svg">
  <path
    d="M10.1493 16.3665H0.882545C0.64848 16.3665 0.424 16.2724 0.258491 16.105C0.0929815 15.9376 0 15.7105 0 15.4738V0.892717C0 0.655954 0.0929815 0.428887 0.258491 0.26147C0.424 0.0940532 0.64848 0 0.882545 0H7.89768L11.0318 3.15017V15.4738C11.0318 15.7105 10.9388 15.9376 10.7733 16.105C10.6078 16.2724 10.3833 16.3665 10.1493 16.3665Z"
    fill="#E0E0E0" />
  <path d="M8.30286 3.00854L11.0318 5.74807V3.15138H8.78017C8.61086 3.1507 8.44527 3.10115 8.30286 3.00854Z"
    fill="url(#paint0_linear_75_363)" />
  <path
    d="M8.78025 3.15115H11.0318L7.89771 0.000976562V2.25843C7.89771 2.4952 7.99068 2.72226 8.15619 2.88968C8.3217 3.0571 8.54618 3.15115 8.78025 3.15115Z"
    fill="#EFF2F4" />
  <path
    d="M13.5655 12.5498H6.30321C6.01056 12.5498 5.77332 12.7898 5.77332 13.0858V16.6712C5.77332 16.9672 6.01056 17.2072 6.30321 17.2072H13.5655C13.8581 17.2072 14.0954 16.9672 14.0954 16.6712V13.0858C14.0954 12.7898 13.8581 12.5498 13.5655 12.5498Z"
    fill="#ED4343" />
  <path
    d="M8.63936 15.0781C8.51556 15.1825 8.33856 15.2348 8.10837 15.2351H7.66709V16.005H7.22766V13.864H8.13668C8.34629 13.864 8.51335 13.9192 8.63789 14.0295C8.76243 14.1399 8.82482 14.3109 8.82507 14.5425C8.82384 14.7949 8.76194 14.9735 8.63936 15.0781ZM8.30179 14.3063C8.23396 14.2552 8.15047 14.2301 8.06607 14.2352H7.66746V14.8657H8.06607C8.15143 14.871 8.23563 14.8435 8.30179 14.7887C8.35769 14.7374 8.38563 14.6563 8.38563 14.5447C8.38563 14.4331 8.35658 14.3539 8.30069 14.3063H8.30179Z"
    fill="white" />
  <path
    d="M10.4195 13.9096C10.5661 13.9575 10.693 14.0531 10.7803 14.1815C10.853 14.2853 10.9044 14.4028 10.9314 14.5271C10.9573 14.6434 10.9708 14.7623 10.9715 14.8816C10.9715 15.1665 10.915 15.4078 10.802 15.6054C10.6485 15.8717 10.4118 16.0049 10.0919 16.0049H9.17883V13.8639H10.0919C10.2028 13.8625 10.3132 13.8779 10.4195 13.9096ZM9.60834 14.2351V15.6329H10.0169C10.226 15.6329 10.3719 15.5288 10.4545 15.3205C10.5024 15.1896 10.5253 15.0508 10.5221 14.9113C10.5221 14.6933 10.4883 14.5261 10.4206 14.4095C10.353 14.293 10.2182 14.2346 10.0161 14.2343L9.60834 14.2351Z"
    fill="white" />
  <path d="M11.3035 13.866H12.813V14.2424H11.7429V14.7349H12.681V15.1068H11.7429V16.0048H11.3016L11.3035 13.866Z"
    fill="white" />
  <defs>
    <linearGradient id="paint0_linear_75_363" x1="8.30286" y1="4.37849" x2="11.0318" y2="4.37849"
      gradientUnits="userSpaceOnUse">
      <stop stop-color="#C4C3C3" />
      <stop offset="1" stop-color="#E0E0E0" />
    </linearGradient>
  </defs>
</svg>