<svg width="37" height="44" viewBox="0 0 37 44" fill="none" xmlns="http://www.w3.org/2000/svg">
  <path
    d="M26.2687 41.8504H2.28424C1.67842 41.8504 1.09741 41.6099 0.669035 41.1818C0.240658 40.7537 0 40.1731 0 39.5677V2.28275C0 1.67733 0.240658 1.0967 0.669035 0.6686C1.09741 0.240502 1.67842 0 2.28424 0H20.4411L28.5529 8.05525V39.5677C28.5529 40.1731 28.3123 40.7537 27.8839 41.1818C27.4555 41.6099 26.8745 41.8504 26.2687 41.8504Z"
    fill="#E0E0E0" />
  <path d="M21.4899 7.69287L28.5529 14.6981V8.05811H22.7253C22.2871 8.05638 21.8585 7.92967 21.4899 7.69287Z"
    fill="url(#paint0_linear_75_201)" />
  <path
    d="M22.7253 8.05818H28.5529L20.441 0.00292969V5.77543C20.441 6.38085 20.6817 6.96148 21.1101 7.38958C21.5384 7.81768 22.1195 8.05818 22.7253 8.05818Z"
    fill="#EFF2F4" />
  <path
    d="M35.1106 32.0908H16.3142C15.5567 32.0908 14.9427 32.7045 14.9427 33.4614V42.6295C14.9427 43.3865 15.5567 44.0001 16.3142 44.0001H35.1106C35.868 44.0001 36.4821 43.3865 36.4821 42.6295V33.4614C36.4821 32.7045 35.868 32.0908 35.1106 32.0908Z"
    fill="#ED4343" />
  <path
    d="M22.3608 38.5559C22.0404 38.8229 21.5822 38.9567 20.9864 38.9573H19.8443V40.9262H18.707V35.4514H21.0597C21.6022 35.4514 22.0346 35.5925 22.357 35.8747C22.6793 36.1568 22.8408 36.5941 22.8414 37.1863C22.8383 37.8318 22.678 38.2884 22.3608 38.5559ZM21.4871 36.5823C21.3115 36.4518 21.0954 36.3874 20.877 36.4007H19.8453V38.0128H20.877C21.0979 38.0265 21.3158 37.9561 21.4871 37.816C21.6317 37.6847 21.7041 37.4774 21.7041 37.192C21.7041 36.9067 21.6289 36.7041 21.4842 36.5823H21.4871Z"
    fill="white" />
  <path
    d="M26.9682 35.5681C27.3477 35.6907 27.6759 35.9351 27.9019 36.2634C28.0902 36.5288 28.2233 36.8293 28.2931 37.147C28.3602 37.4446 28.395 37.7485 28.3968 38.0535C28.3968 38.7821 28.2506 39.399 27.9581 39.9044C27.5609 40.5854 26.9483 40.9259 26.1202 40.9259H23.757V35.4511H26.1202C26.4071 35.4477 26.693 35.4871 26.9682 35.5681ZM24.8687 36.4004V39.9748H25.9261C26.4673 39.9748 26.8448 39.7085 27.0587 39.1758C27.1827 38.8412 27.2421 38.4862 27.2338 38.1296C27.2338 37.5722 27.1462 37.1445 26.9711 36.8465C26.796 36.5484 26.447 36.3991 25.9242 36.3985L24.8687 36.4004Z"
    fill="white" />
  <path d="M29.2563 35.4568H33.1633V36.4193H30.3936V37.6787H32.8216V38.6298H30.3936V40.9259H29.2515L29.2563 35.4568Z"
    fill="white" />
  <defs>
    <linearGradient id="paint0_linear_75_201" x1="21.4899" y1="11.1959" x2="28.5529" y2="11.1959"
      gradientUnits="userSpaceOnUse">
      <stop stop-color="#C4C3C3" />
      <stop offset="1" stop-color="#E0E0E0" />
    </linearGradient>
  </defs>
</svg>